<svg width="24" height="25" viewBox="0 0 24 25" fill="none" xmlns="http://www.w3.org/2000/svg">
<path d="M20.9649 13.9249C20.5613 13.9249 20.2341 14.2522 20.2341 14.6558V19.1954C20.2341 19.7348 20.0241 20.2418 19.6426 20.6231C19.2613 21.0045 18.7543 21.2146 18.2151 21.2146H5.62372C5.08454 21.2146 4.57752 21.0046 4.1962 20.6231C3.81488 20.2418 3.60476 19.7348 3.60476 19.1956V14.6558C3.60476 14.2522 3.27752 13.9249 2.87391 13.9249C2.4703 13.9249 2.14307 14.2522 2.14307 14.6558V19.1954C2.14307 20.1251 2.50502 20.9993 3.1626 21.6566C3.81999 22.3141 4.69409 22.6763 5.62372 22.6763H18.2151C19.1448 22.6763 20.0188 22.3141 20.6762 21.6567C21.3336 20.9993 21.6958 20.1252 21.6958 19.1954V14.6558C21.6958 14.2522 21.3685 13.9249 20.9649 13.9249Z" fill="white"/>
<path d="M11.416 18.8304C11.5571 18.9643 11.7381 19.0314 11.9194 19.0314C12.1006 19.0314 12.2817 18.9643 12.4228 18.8304L17.1418 14.3477C17.4345 14.0698 17.4464 13.6072 17.1683 13.3145C16.8906 13.022 16.4278 13.0099 16.1351 13.288L12.6502 16.5984V2.79651C12.6502 2.3929 12.323 2.06566 11.9194 2.06566C11.5158 2.06566 11.1885 2.3929 11.1885 2.79651V16.5984L7.70369 13.288C7.41117 13.0101 6.94872 13.0218 6.67045 13.3145C6.39255 13.6072 6.40424 14.0698 6.69695 14.3477L11.416 18.8304Z" fill="white"/>
</svg>
