<svg width="38" height="37" viewBox="0 0 38 37" fill="none" xmlns="http://www.w3.org/2000/svg">
<path d="M35.625 11.5625V32.6875C35.625 33.7921 34.7296 34.6875 33.625 34.6875H11.5C10.3954 34.6875 9.5 33.7921 9.5 32.6875V31.1031L24.7475 31.1956C26.9325 31.2072 28.7138 29.4959 28.7256 27.3684L28.7731 19.8412C28.785 17.7137 27.0275 15.9794 24.8425 15.9678L9.5 15.8753V4.3125C9.5 3.20793 10.3954 2.3125 11.5 2.3125H26.125L35.625 11.5625Z" fill="#6AB547"/>
<path d="M35.625 11.5625H26.125V2.3125L35.625 11.5625Z" fill="#4D8F2E"/>
<path d="M28.7731 19.8412L28.7256 27.3684C28.7138 29.4959 26.9325 31.2072 24.7475 31.1956L9.50001 31.1031L8.55001 31.0916C6.36501 31.08 4.60751 29.3456 4.61938 27.2297L4.66688 19.6909C4.69063 17.575 6.46001 15.8637 8.64501 15.8753H9.50001L24.8425 15.9678C27.0275 15.9794 28.785 17.7137 28.7731 19.8412Z" fill="#2C394B"/>
<path d="M8.88965 26.4319V20.6391H13.3012V21.6196H10.0902V22.9042H13.078V23.88H10.0902V25.456H13.414V26.433L8.88965 26.4319Z" fill="white"/>
<path d="M13.8285 26.4319L15.8627 23.4094L14.0197 20.6391H15.4245L16.6179 22.4995L17.7864 20.6391H19.1782L17.3269 23.4534L19.3611 26.433H17.9111L16.593 24.4293L15.2701 26.433L13.8285 26.4319Z" fill="white"/>
<path d="M19.9785 26.4319V20.6391H24.3901V21.6196H21.1803V22.9042H24.168V23.88H21.1803V25.456H24.5041V26.433L19.9785 26.4319Z" fill="white"/>
</svg>
