<svg width="28" height="20" viewBox="0 0 28 20" fill="none" xmlns="http://www.w3.org/2000/svg">
<path d="M23.8395 0H4.13576C2.32208 0 0.851807 1.47027 0.851807 3.28395V16.4198C0.851807 18.2334 2.32208 19.7037 4.13576 19.7037H23.8395C25.6531 19.7037 27.1234 18.2334 27.1234 16.4198V3.28395C27.1234 1.47027 25.6531 0 23.8395 0Z" fill="#FCD354"/>
<path d="M22.7779 4.34549C22.7017 4.26922 22.6112 4.20872 22.5116 4.16744C22.412 4.12616 22.3053 4.10491 22.1974 4.10491C22.0896 4.10491 21.9829 4.12616 21.8833 4.16744C21.7837 4.20872 21.6932 4.26922 21.617 4.34549L15.0491 10.9134C14.9728 10.9896 14.9123 11.0801 14.8711 11.1797C14.8298 11.2793 14.8085 11.386 14.8085 11.4938C14.8085 11.6016 14.8298 11.7084 14.8711 11.808C14.9123 11.9076 14.9728 11.9981 15.0491 12.0743L22.6785 19.7037H23.8394C24.7101 19.7029 25.5449 19.3566 26.1606 18.7409C26.7763 18.1252 27.1225 17.2904 27.1234 16.4198V8.69089L22.7779 4.34549Z" fill="#E58217"/>
<path d="M6.59871 8.20987C7.95896 8.20987 9.06167 7.10717 9.06167 5.74691C9.06167 4.38665 7.95896 3.28395 6.59871 3.28395C5.23845 3.28395 4.13574 4.38665 4.13574 5.74691C4.13574 7.10717 5.23845 8.20987 6.59871 8.20987Z" fill="#FFB125"/>
<path d="M13.0496 7.75291C12.9734 7.67664 12.8829 7.61614 12.7833 7.57486C12.6837 7.53358 12.5769 7.51233 12.4691 7.51233C12.3613 7.51233 12.2546 7.53358 12.155 7.57486C12.0554 7.61614 11.9649 7.67664 11.8887 7.75291L1.40131 18.2326C1.70018 18.6845 2.10633 19.0554 2.58348 19.3121C3.06064 19.5688 3.59394 19.7034 4.13577 19.7037H23.8395C24.1767 19.6991 24.5112 19.6419 24.8308 19.5342L13.0496 7.75291Z" fill="#FFB125"/>
</svg>
