<svg width="37" height="37" viewBox="0 0 37 37" fill="none" xmlns="http://www.w3.org/2000/svg">
<path d="M34.6875 11.5625V32.6875C34.6875 33.7921 33.7921 34.6875 32.6875 34.6875H11.25C10.1454 34.6875 9.25 33.7921 9.25 32.6875V31.1031L24.0962 31.1956C26.2237 31.2072 27.9581 29.4959 27.9697 27.3684L28.0159 19.8412C28.0275 17.7137 26.3162 15.9794 24.1888 15.9678L9.25 15.8753V4.3125C9.25 3.20793 10.1454 2.3125 11.25 2.3125H25.4375L34.6875 11.5625Z" fill="#FF4C29"/>
<path d="M34.6875 11.5625H25.4375V2.3125L34.6875 11.5625Z" fill="#BF3021"/>
<path d="M28.0159 19.8412L27.9697 27.3684C27.9581 29.4959 26.2237 31.2072 24.0962 31.1956L9.24999 31.1031L8.32499 31.0916C6.19749 31.08 4.48624 29.3456 4.4978 27.2297L4.54405 19.6909C4.56717 17.575 6.28999 15.8637 8.41749 15.8753H9.24999L24.1887 15.9678C26.3162 15.9794 28.0275 17.7137 28.0159 19.8412Z" fill="#2C394B"/>
<path d="M8.75165 26.6088V20.8148H10.6294C11.3405 20.8148 11.8041 20.8437 12.0204 20.9015C12.3522 20.9882 12.6297 21.1779 12.854 21.4681C13.0783 21.7595 13.1905 22.1352 13.1905 22.5966C13.1905 22.9527 13.1257 23.251 12.9962 23.4938C12.8679 23.7355 12.7037 23.9263 12.5048 24.065C12.3048 24.2026 12.1025 24.2951 11.8978 24.3391C11.6191 24.3946 11.2145 24.4223 10.6849 24.4223H9.92177V26.6076H8.75165V26.6088ZM9.92177 21.7953V23.4395H10.5623C11.0237 23.4395 11.3324 23.4094 11.4873 23.3482C11.6434 23.288 11.7648 23.1932 11.8527 23.0637C11.9406 22.9342 11.9845 22.7839 11.9845 22.6128C11.9845 22.4023 11.9221 22.2277 11.7995 22.0913C11.6758 21.9537 11.5186 21.8693 11.3289 21.8346C11.1902 21.808 10.9092 21.7953 10.4872 21.7953H9.92177Z" fill="white"/>
<path d="M14.1467 20.8148H16.2846C16.7668 20.8148 17.1345 20.8518 17.3877 20.9258C17.7276 21.0252 18.019 21.2033 18.2607 21.4588C18.5035 21.7144 18.6873 22.0277 18.8145 22.3977C18.9405 22.7677 19.0041 23.2244 19.0041 23.7667C19.0041 24.2442 18.9452 24.6547 18.8272 24.9993C18.6815 25.4213 18.4746 25.7624 18.2063 26.0226C18.004 26.2203 17.7299 26.3741 17.3842 26.4851C17.1264 26.5672 16.7818 26.6076 16.3482 26.6076H14.1479V20.8148H14.1467ZM15.3169 21.7953V25.6329H16.1898C16.517 25.6329 16.7518 25.6144 16.8974 25.5774C17.0871 25.53 17.2443 25.4502 17.3692 25.3369C17.4941 25.2236 17.5958 25.0374 17.6756 24.7784C17.7542 24.5183 17.7947 24.1645 17.7947 23.717C17.7947 23.2695 17.7554 22.925 17.6756 22.6856C17.5958 22.4463 17.486 22.2578 17.3438 22.1225C17.2015 21.9872 17.0212 21.8971 16.8026 21.8497C16.6384 21.8127 16.3193 21.7942 15.8418 21.7942L15.3169 21.7953Z" fill="white"/>
<path d="M20.0043 26.6088V20.8148H23.976V21.7953H21.1744V23.1666H23.5933V24.1471H21.1744V26.6088H20.0043Z" fill="white"/>
</svg>
