<svg width="20" height="24" viewBox="0 0 20 24" fill="none" xmlns="http://www.w3.org/2000/svg">
<path d="M19.3587 4.34339H18.2228L17.9113 2.52556C17.7831 1.43345 16.8627 0.6129 15.7605 0.6129H3.62658C2.52445 0.6129 1.60404 1.43336 1.47579 2.52537L1.16424 4.34334H0.0283203V5.72839H1.09638L2.20372 24H17.1833L18.2907 5.72839H19.3587V4.34339ZM2.84426 2.73969L2.85036 2.69601C2.89269 2.29804 3.2264 1.99795 3.62658 1.99795H15.7605C16.1607 1.99795 16.4944 2.29804 16.5367 2.69597L16.5391 2.71794L16.8176 4.34344H2.56947L2.84426 2.73969ZM15.8797 22.615H3.50738L2.48397 5.72844H4.92262V12.7428C4.92262 13.1252 5.23269 13.4353 5.61514 13.4353C5.9976 13.4353 6.30767 13.1252 6.30767 12.7428V5.72844H9.00108V12.7428C9.00108 13.1252 9.31115 13.4353 9.6936 13.4353C10.0761 13.4353 10.3861 13.1252 10.3861 12.7428V5.72844H13.0795V12.7428C13.0795 13.1252 13.3896 13.4353 13.7721 13.4353C14.1545 13.4353 14.4646 13.1252 14.4646 12.7428V5.72844H16.9032L15.8797 22.615Z" fill="white"/>
</svg>
