<svg width="38" height="37" viewBox="0 0 38 37" fill="none" xmlns="http://www.w3.org/2000/svg">
<path d="M35.625 11.5625V32.6875C35.625 33.7921 34.7296 34.6875 33.625 34.6875H11.5C10.3954 34.6875 9.5 33.7921 9.5 32.6875V31.1031L24.7475 31.1956C26.9325 31.2072 28.7138 29.4959 28.7256 27.3684L28.7731 19.8412C28.785 17.7137 27.0275 15.9794 24.8425 15.9678L9.5 15.8753V4.3125C9.5 3.20793 10.3954 2.3125 11.5 2.3125H26.125L35.625 11.5625Z" fill="#00B4D8"/>
<path d="M35.625 11.5625H26.125V2.3125L35.625 11.5625Z" fill="#039CBB"/>
<path d="M28.7731 19.8413L28.7256 27.3684C28.7138 29.4959 26.9325 31.2072 24.7475 31.1956L9.50001 31.1031L8.55001 31.0916C6.36501 31.08 4.60751 29.3456 4.61938 27.2297L4.66688 19.6909C4.69063 17.575 6.46001 15.8638 8.64501 15.8753H9.50001L24.8425 15.9678C27.0275 15.9794 28.785 17.7138 28.7731 19.8413Z" fill="#2C394B"/>
<path d="M8.06073 20.8148H10.2576C10.7528 20.8148 11.1292 20.8518 11.3893 20.9258C11.7384 21.0252 12.0377 21.2033 12.287 21.4588C12.5352 21.7144 12.7252 22.0277 12.8559 22.3977C12.9853 22.7677 13.0506 23.2244 13.0506 23.7667C13.0506 24.2442 12.9889 24.6547 12.8677 24.9993C12.7193 25.4213 12.5067 25.7624 12.2312 26.0226C12.0222 26.2203 11.7408 26.3741 11.3869 26.4851C11.1209 26.5671 10.767 26.6076 10.3229 26.6076H8.06073V20.8148ZM9.26248 21.7953V25.6329H10.1602C10.4951 25.6329 10.7374 25.6144 10.8858 25.5774C11.0805 25.53 11.2432 25.4502 11.3703 25.3369C11.4985 25.2236 11.6042 25.0374 11.6862 24.7784C11.7669 24.5183 11.8085 24.1645 11.8085 23.717C11.8085 23.2695 11.7681 22.925 11.6862 22.6856C11.6042 22.4463 11.4914 22.259 11.3454 22.1248C11.1993 21.9907 11.014 21.8994 10.7884 21.852C10.621 21.815 10.292 21.7965 9.80279 21.7965L9.26248 21.7953Z" fill="white"/>
<path d="M13.8248 23.7471C13.8248 23.1574 13.9151 22.6613 14.0968 22.2613C14.231 21.9664 14.4174 21.7016 14.6513 21.4669C14.8841 21.2322 15.1406 21.0588 15.4196 20.9455C15.7901 20.7928 16.2176 20.7165 16.7021 20.7165C17.5785 20.7165 18.2803 20.9813 18.8064 21.5109C19.3313 22.0404 19.5949 22.777 19.5949 23.7205C19.5949 24.6559 19.3336 25.3878 18.8123 25.9162C18.2898 26.4446 17.5916 26.7082 16.7176 26.7082C15.8329 26.7082 15.1287 26.4457 14.6074 25.9196C14.0849 25.3936 13.8248 24.6686 13.8248 23.7471ZM15.0634 23.7077C15.0634 24.3633 15.219 24.8617 15.5301 25.1993C15.8424 25.5381 16.2366 25.7069 16.7152 25.7069C17.1938 25.7069 17.5868 25.5381 17.8944 25.2028C18.202 24.8663 18.3551 24.3622 18.3551 23.6904C18.3551 23.0267 18.2055 22.5318 17.9075 22.2046C17.6082 21.8774 17.2104 21.7144 16.7152 21.7144C16.22 21.7144 15.821 21.8797 15.5182 22.2104C15.2142 22.5422 15.0634 23.0406 15.0634 23.7077Z" fill="white"/>
<path d="M24.3413 24.4778L25.5051 24.8374C25.327 25.4699 25.0301 25.9393 24.6145 26.2469C24.1988 26.5533 23.6716 26.7071 23.0339 26.7071C22.243 26.7071 21.5935 26.4446 21.0852 25.9185C20.5758 25.3936 20.3217 24.6744 20.3217 23.7632C20.3217 22.7989 20.577 22.0508 21.0888 21.5166C21.6006 20.9836 22.2727 20.7165 23.1063 20.7165C23.8331 20.7165 24.4245 20.9258 24.8793 21.3444C25.1512 21.5918 25.3531 21.9479 25.4885 22.4116L24.2998 22.6879C24.2285 22.3873 24.0813 22.1503 23.8592 21.9768C23.636 21.8034 23.3652 21.7155 23.0446 21.7155C22.604 21.7155 22.2454 21.8693 21.9711 22.178C21.698 22.4867 21.559 22.9851 21.559 23.6754C21.559 24.4073 21.6944 24.9287 21.9652 25.2409C22.2371 25.552 22.5874 25.7069 23.0208 25.7069C23.3415 25.7069 23.6146 25.6086 23.845 25.4109C24.0753 25.2132 24.2404 24.9021 24.3413 24.4778Z" fill="white"/>
</svg>
